# xmcd CD database file
#
# Track frame offsets:
#	150
#	21198
#	43100
#	67867
#	92029
#	109601
#	128307
#	151711
#	177536
#	197983
#	219629
#	246095
#
# Disc length: 3510 seconds
#
# Revision: 0
# Processed by: cddbd v1.5.2PL0 Copyright (c) Steve Scherf et al.
# Submitted via: CDex 2.00
#
DISCID=9b0db40c
DTITLE=Ben Crosland Quintet - The Ray Davies Songbook
DYEAR=2016
DGENRE=Jazz
TTITLE0=All Day and All of the Night
TTITLE1=Waterloo Sunset
TTITLE2=You Really Got Me
TTITLE3=See My Friend
TTITLE4=Ev'rybody's Gonna Be Happy
TTITLE5=Sunny Afternoon
TTITLE6=Dedicated Follower of Fashion
TTITLE7=Tired of Waiting For You
TTITLE8=Dead End Street
TTITLE9=I Need You
TTITLE10=Set Me Free
TTITLE11=A Well Respected Man
EXTD=YEAR: 2016
EXTT0=
EXTT1=
EXTT2=
EXTT3=
EXTT4=
EXTT5=
EXTT6=
EXTT7=
EXTT8=
EXTT9=
EXTT10=
EXTT11=
PLAYORDER=
